<?xml version="1.0" ?><!DOCTYPE svg  PUBLIC '-//W3C//DTD SVG 1.1//EN'  'http://www.w3.org/Graphics/SVG/1.1/DTD/svg11.dtd'><svg height="100%" style="fill-rule:evenodd;clip-rule:evenodd;stroke-linejoin:round;stroke-miterlimit:2;" version="1.1" viewBox="0 0 24 24" width="100%" xml:space="preserve" xmlns="http://www.w3.org/2000/svg" xmlns:serif="http://www.serif.com/" xmlns:xlink="http://www.w3.org/1999/xlink"><g id="Icon"><path d="M11.987,6.002l3.372,-3.371c0.328,-0.328 0.773,-0.513 1.237,-0.513c0.464,0 0.909,0.185 1.238,0.513c0.94,0.941 2.594,2.595 3.535,3.535c0.328,0.329 0.513,0.774 0.513,1.238c-0,0.464 -0.185,0.909 -0.513,1.237l-3.371,3.372c0.514,0.685 0.459,1.662 -0.164,2.285c-1.19,1.19 -3.668,3.668 -5.768,5.768c-1.078,1.078 -2.541,1.684 -4.066,1.684c-1.525,0 -2.988,-0.606 -4.066,-1.684c-0,-0.001 -0.001,-0.001 -0.001,-0.002c-1.078,-1.078 -1.684,-2.54 -1.684,-4.064c0,-1.524 0.606,-2.987 1.684,-4.064c2.1,-2.1 4.579,-4.58 5.769,-5.77l-0,0c0.623,-0.623 1.6,-0.678 2.285,-0.164Zm-1.224,1.225c0.097,-0.098 0.255,-0.098 0.353,0c1.355,1.355 4.302,4.302 5.657,5.657c0.098,0.098 0.098,0.256 -0,0.353c-1.19,1.19 -3.668,3.669 -5.768,5.768c-0.797,0.797 -1.878,1.245 -3.005,1.245c-1.127,0 -2.208,-0.448 -3.005,-1.245c-0.001,-0 -0.001,-0.001 -0.002,-0.001c-0.796,-0.797 -1.244,-1.877 -1.244,-3.004c0,-1.127 0.448,-2.207 1.244,-3.004l5.77,-5.769Zm6.187,3.712l3.359,-3.358c0.046,-0.047 0.073,-0.111 0.073,-0.177c-0,-0.066 -0.027,-0.13 -0.074,-0.177c-0.94,-0.941 -2.594,-2.595 -3.535,-3.536c-0.047,-0.046 -0.111,-0.073 -0.177,-0.073c-0.066,0 -0.13,0.027 -0.177,0.073l-3.358,3.359l3.889,3.889Z"/><path d="M16.066,5.459l-1.061,1.061c-0.292,0.293 -0.292,0.768 0,1.061c0.293,0.292 0.768,0.292 1.061,-0l1.061,-1.061c0.292,-0.293 0.292,-0.768 -0,-1.061c-0.293,-0.292 -0.768,-0.292 -1.061,0Z"/><path d="M17.48,6.873l-1.061,1.061c-0.292,0.293 -0.292,0.768 0,1.061c0.293,0.292 0.768,0.292 1.061,-0l1.061,-1.061c0.292,-0.293 0.292,-0.768 -0,-1.061c-0.293,-0.292 -0.768,-0.292 -1.061,0Z"/></g></svg>